<?xml version="1.0" standalone="no"?>
<!DOCTYPE svg PUBLIC "-//W3C//DTD SVG 20010904//EN"
 "http://www.w3.org/TR/2001/REC-SVG-20010904/DTD/svg10.dtd">
<svg version="1.0" xmlns="http://www.w3.org/2000/svg"
 width="512px" height="294px" viewBox="0 0 512.000000 294.000000"
 preserveAspectRatio="xMidYMid meet">

<g transform="translate(0.000000,294.000000) scale(0.100000,-0.100000)"
fill="#000000" stroke="none">
<path d="M611 2926 c-53 -29 -50 34 -51 -1349 0 -1381 -2 -1327 47 -1356 13
-7 -66 -10 -261 -11 l-278 0 -35 -35 c-32 -32 -35 -40 -30 -77 3 -26 15 -51
31 -67 l26 -26 2500 0 2500 0 26 26 c16 16 28 41 31 67 5 37 2 45 -30 77 l-35
35 -287 0 -288 0 27 26 26 27 0 1312 0 1313 -31 26 -31 26 -1916 0 c-1572 -1
-1921 -3 -1941 -14z m3779 -1361 l0 -1235 -1835 0 -1835 0 0 1235 0 1235 1835
0 1835 0 0 -1235z m-1636 -1427 c8 -22 6 -32 -9 -48 -17 -19 -30 -20 -183 -20
-140 0 -168 3 -184 17 -21 18 -23 36 -8 64 10 18 21 19 193 17 l182 -3 9 -27z"/>
</g>
</svg>
